HIERARCHY
ROOT Hips
{
	OFFSET 0.00 0.00 0.00
	CHANNELS 6 Xposition Yposition Zposition Xrotation Yrotation Zrotation
	JOINT RightUpLeg
	{
		OFFSET -4.47808 0.00000 0.00000
		CHANNELS 3 Xrotation Yrotation Zrotation
		JOINT RightLeg
		{
			OFFSET 0.00000 -16.40577 0.00000
			CHANNELS 3 Xrotation Yrotation Zrotation
			JOINT RightFoot
			{
				OFFSET 0.00000 -14.64414 0.00000
				CHANNELS 3 Xrotation Yrotation Zrotation
				JOINT RightToeBase
				{
					OFFSET 0.00000 -1.50274 5.60831
					CHANNELS 3 Xrotation Yrotation Zrotation
					End Site
					{
						OFFSET 0.00000 0.00000 2.95275
					}
				}
			}
		}
	}
	JOINT LeftUpLeg
	{
		OFFSET 4.47808 0.00000 0.00000
		CHANNELS 3 Xrotation Yrotation Zrotation
		JOINT LeftLeg
		{
			OFFSET 0.00000 -16.40577 0.00000
			CHANNELS 3 Xrotation Yrotation Zrotation
			JOINT LeftFoot
			{
				OFFSET 0.00000 -14.64414 0.00000
				CHANNELS 3 Xrotation Yrotation Zrotation
				JOINT LeftToeBase
				{
					OFFSET 0.00000 -1.50274 5.60831
					CHANNELS 3 Xrotation Yrotation Zrotation
					End Site
					{
						OFFSET 0.00000 0.00000 2.95275
					}
				}
			}
		}
	}
	JOINT Spine
	{
		OFFSET 0.00000 6.06821 0.00000
		CHANNELS 3 Xrotation Yrotation Zrotation
		JOINT RightShoulder
		{
			OFFSET 0.00000 10.01392 0.00000
			CHANNELS 3 Xrotation Yrotation Zrotation
			JOINT RightArm
			{
				OFFSET -7.19022 0.00000 0.00000
				CHANNELS 3 Xrotation Yrotation Zrotation
				JOINT RightForeArm
				{
					OFFSET -10.17747 0.00000 0.00000
					CHANNELS 3 Yrotation Zrotation Xrotation
					JOINT RightHand
					{
						OFFSET -8.39211 0.00000 0.00000
						CHANNELS 3 Xrotation Yrotation Zrotation
						End Site
						{
							OFFSET -3.93700 0.00000 0.00000
						}
						JOINT RightHandThumb1
						{
							OFFSET 0.00000 0.00000 0.00000
							CHANNELS 3 Xrotation Zrotation Yrotation
							End Site
							{
								OFFSET 0.00000 0.00000 3.93700
							}
						}
					}
				}
			}
		}
		JOINT LeftShoulder
		{
			OFFSET 0.00000 10.01392 0.00000
			CHANNELS 3 Xrotation Yrotation Zrotation
			JOINT LeftArm
			{
				OFFSET 7.19022 0.00000 0.00000
				CHANNELS 3 Xrotation Yrotation Zrotation
				JOINT LeftForeArm
				{
					OFFSET 10.17747 0.00000 0.00000
					CHANNELS 3 Yrotation Zrotation Xrotation
					JOINT LeftHand
					{
						OFFSET 8.39211 0.00000 0.00000
						CHANNELS 3 Xrotation Yrotation Zrotation
						End Site
						{
							OFFSET 3.93700 0.00000 0.00000
						}
						JOINT LeftHandThumb1
						{
							OFFSET 0.00000 0.00000 0.00000
							CHANNELS 3 Xrotation Zrotation Yrotation
							End Site
							{
								OFFSET 0.00000 0.00000 3.93700
							}
						}
					}
				}
			}
		}
		JOINT Head
		{
			OFFSET 0.00000 15.77748 0.00000
			CHANNELS 3 Xrotation Yrotation Zrotation
			End Site
			{
				OFFSET 0.00000 4.52755 0.00000
			}
		}
	}
}
MOTION
Frames: 17
Frame Time: 0.008333
 -1.3075 33.0629 -0.7013 8.1837 -2.7483 2.7174 -3.2999 -8.3981 -5.1726 -0.3766 0.0000 0.0000 -10.0437 -5.3439 4.4021 6.1674 -0.0000 -0.0000 -2.7324 6.9635 5.1450 1.1786 0.0000 -0.0000 -7.6448 8.7597 -18.1115 8.2740 0.0000 -0.0000 -9.0517 -2.1326 -2.3450 1.0237 -21.1784 -26.6650 -35.9954 2.0628 34.4234 9.9455 -0.0000 15.7439 -1.7109 11.1682 8.7666 32.8623 0.0000 -24.3270 -8.4380 22.6770 33.8895 -33.5904 1.4369 -28.4854 -0.3262 0.0000 23.8686 0.3597 2.6246 -7.8070 33.1476 -0.0000 26.2537 -2.0094 2.8650 3.1305
 -1.3096 33.0623 -0.7000 8.1630 -2.7232 2.7010 -3.2783 -8.4122 -5.1557 -0.3580 -0.0000 0.0000 -10.0565 -5.3592 4.4337 6.1979 0.0000 -0.0000 -2.7273 6.9709 5.1646 1.1954 -0.0000 0.0000 -7.6615 8.7264 -18.1205 8.2947 -0.0000 0.0000 -9.0194 -2.1685 -2.3145 0.9938 -21.1947 -26.7302 -35.9731 2.1453 34.4014 9.9328 -0.0000 15.5995 -1.7354 11.0466 8.9856 32.8623 0.0000 -24.3270 -8.4308 22.6870 33.8804 -33.5736 1.4199 -28.4602 -0.3242 0.0000 23.8952 0.3622 2.6631 -7.7487 33.1476 -0.0000 26.2537 -2.0338 2.9224 3.0755
 -1.3077 33.0622 -0.6997 8.1525 -2.7015 2.7140 -3.2702 -8.4146 -5.1760 -0.3475 0.0000 0.0000 -10.0807 -5.3789 4.4474 6.2075 -0.0000 0.0000 -2.7204 6.9571 5.1469 1.1991 0.0000 -0.0000 -7.6605 8.7198 -18.1316 8.3268 -0.0000 0.0000 -9.0073 -2.1881 -2.2961 1.0145 -21.2002 -26.7538 -36.0222 2.2025 34.3047 9.8952 -0.0000 15.6173 -1.7353 11.1849 8.8769 32.8623 0.0000 -24.3270 -8.3904 22.6801 33.8273 -33.5780 1.4076 -28.4277 -0.2970 0.0000 23.9185 0.3692 2.6915 -7.8136 33.1476 -0.0000 26.2537 -2.0159 2.9789 2.9841
 -1.3082 33.0620 -0.6998 8.1522 -2.6697 2.7068 -3.2735 -8.4276 -5.1707 -0.3258 0.0000 0.0000 -10.0874 -5.3834 4.4146 6.1319 0.0000 0.0000 -2.7380 6.9448 5.1549 1.2186 -0.0000 -0.0000 -7.6637 8.7021 -18.1308 8.2906 0.0000 0.0000 -9.0097 -2.2369 -2.2525 1.0050 -21.1834 -26.8210 -36.0389 2.2225 34.2583 9.9149 -0.0000 15.5691 -1.7590 11.1817 8.9987 32.8623 0.0000 -24.3270 -8.3750 22.6659 33.7703 -33.5643 1.4126 -28.3910 -0.2639 0.0000 23.9683 0.3730 2.7056 -7.8518 33.1476 -0.0000 26.2537 -2.0057 3.1400 2.9269
 -1.3075 33.0613 -0.6997 8.1531 -2.6437 2.7121 -3.2702 -8.4068 -5.1792 -0.3194 -0.0000 -0.0000 -10.1139 -5.4269 4.3883 6.1856 -0.0000 0.0000 -2.7475 6.9218 5.1476 1.2288 0.0000 -0.0000 -7.6751 8.7023 -18.1443 8.3620 0.0000 0.0000 -9.0121 -2.2835 -2.2288 1.0147 -21.1956 -26.8846 -36.0828 2.2939 34.2439 9.9327 -0.0000 15.5069 -1.7751 10.9817 9.2405 32.8623 0.0000 -24.3270 -8.3517 22.6926 33.7311 -33.6119 1.4266 -28.3943 -0.2268 0.0000 24.0142 0.3825 2.7665 -7.8750 33.1476 -0.0000 26.2537 -1.9943 3.2061 2.8679
 -1.3065 33.0616 -0.6994 8.1508 -2.6246 2.7199 -3.2599 -8.3761 -5.1888 -0.3257 0.0000 -0.0000 -10.1135 -5.4790 4.3835 6.1789 0.0000 0.0000 -2.7502 6.9263 5.1391 1.2316 -0.0000 0.0000 -7.6688 8.6755 -18.1584 8.3899 0.0000 0.0000 -9.0056 -2.3059 -2.2144 0.9917 -21.1866 -26.9314 -36.0765 2.3398 34.1910 9.9218 -0.0000 15.4520 -1.7600 11.0220 9.1307 32.8623 0.0000 -24.3270 -8.3497 22.7029 33.7031 -33.6582 1.4476 -28.4204 -0.1980 0.0000 24.0937 0.3959 2.8033 -8.0425 33.1476 -0.0000 26.2537 -1.9943 3.2614 2.8200
 -1.3061 33.0614 -0.6993 8.1520 -2.5909 2.7246 -3.2523 -8.3737 -5.1946 -0.3300 0.0000 0.0000 -10.1194 -5.5187 4.3924 6.1993 0.0000 0.0000 -2.7612 6.9124 5.1343 1.2359 0.0000 0.0000 -7.6620 8.6581 -18.1725 8.3786 0.0000 0.0000 -9.0048 -2.3347 -2.2060 0.9826 -21.1862 -26.9720 -36.0663 2.3823 34.1534 9.9115 -0.0000 15.3411 -1.7878 11.0085 9.2835 32.8623 0.0000 -24.3270 -8.3672 22.6897 33.6915 -33.7079 1.4916 -28.4543 -0.1672 0.0000 24.2394 0.4154 2.8483 -8.3011 33.1476 -0.0000 26.2537 -1.9785 3.1985 2.7589
 -1.3058 33.0612 -0.6990 8.1584 -2.5632 2.7219 -3.2489 -8.3684 -5.1939 -0.3355 -0.0000 -0.0000 -10.1317 -5.5432 4.3710 6.2092 -0.0000 0.0000 -2.7759 6.9030 5.1371 1.2346 0.0000 -0.0000 -7.6853 8.6342 -18.0979 8.4712 -0.0000 -0.0000 -9.0124 -2.3682 -2.1764 0.9560 -21.1859 -27.0597 -36.0888 2.3758 34.1676 9.9195 -0.0000 15.3326 -1.7688 11.0334 9.1661 32.8623 0.0000 -24.3270 -8.3891 22.6623 33.6657 -33.7085 1.5310 -28.4762 -0.1263 0.0000 24.3305 0.4322 2.9157 -8.4344 33.1476 -0.0000 26.2537 -1.9886 3.3066 2.7426
 -1.3065 33.0616 -0.6990 8.1587 -2.5445 2.7272 -3.2369 -8.3476 -5.1982 -0.3496 -0.0000 -0.0000 -10.1231 -5.5781 4.3769 6.1964 -0.0000 0.0000 -2.7814 6.9056 5.1342 1.2397 0.0000 0.0000 -7.6549 8.6200 -18.2158 8.3838 -0.0000 0.0000 -9.0120 -2.3843 -2.1788 0.9554 -21.1621 -27.0784 -36.0655 2.4015 34.1264 9.9421 -0.0000 15.2760 -1.7541 10.9973 9.1200 32.8623 0.0000 -24.3270 -8.4081 22.6420 33.6686 -33.7280 1.5722 -28.5213 -0.0796 0.0000 24.4846 0.4359 2.8782 -8.6148 33.1476 -0.0000 26.2537 -1.9671 3.2309 2.7097
 -1.3066 33.0618 -0.6992 8.1638 -2.5295 2.7298 -3.2336 -8.3349 -5.2009 -0.3599 -0.0000 -0.0000 -10.1182 -5.6028 4.3577 6.1692 0.0000 -0.0000 -2.7862 6.8835 5.1303 1.2354 -0.0000 -0.0000 -7.6492 8.6222 -18.1934 8.4089 -0.0000 0.0000 -9.0182 -2.4063 -2.1641 0.9522 -21.1464 -27.1276 -36.0705 2.4201 34.1273 9.9204 -0.0000 15.3299 -1.7110 11.0538 8.8555 32.8623 0.0000 -24.3270 -8.3670 22.6857 33.6221 -33.7628 1.5454 -28.5698 -0.0246 0.0000 24.5872 0.4471 2.8574 -8.8976 33.1476 -0.0000 26.2537 -1.9558 3.2235 2.6961
 -1.3068 33.0621 -0.6991 8.1667 -2.5144 2.7346 -3.2243 -8.3292 -5.2040 -0.3798 -0.0000 0.0000 -10.1139 -5.6200 4.3386 6.1533 0.0000 0.0000 -2.7892 6.8638 5.1262 1.2314 0.0000 0.0000 -7.6386 8.6237 -18.2066 8.3784 -0.0000 0.0000 -9.0176 -2.4172 -2.1599 0.9501 -21.1432 -27.1494 -36.0856 2.4496 34.1045 9.9133 -0.0000 15.2198 -1.7091 11.0479 8.8503 32.8623 0.0000 -24.3270 -8.3718 22.6769 33.6102 -33.7193 1.5478 -28.6250 0.0006 0.0000 24.6627 0.4502 2.8242 -9.0619 33.1476 -0.0000 26.2537 -1.9703 3.2693 2.6849
 -1.3047 33.0629 -0.7020 8.1907 -2.5058 2.7462 -3.2528 -8.3180 -5.2187 -0.3810 -0.0000 -0.0000 -10.1087 -5.6431 4.3703 6.1499 0.0000 0.0000 -2.8233 6.8458 5.1131 1.2427 -0.0000 -0.0000 -7.6285 8.6315 -18.2080 8.4183 -0.0000 0.0000 -9.0340 -2.4279 -2.1495 0.9436 -21.1358 -27.1919 -36.1104 2.4563 34.1103 9.9015 -0.0000 15.1719 -1.7315 11.0070 8.9971 32.8623 0.0000 -24.3270 -8.3578 22.6912 33.5798 -33.6853 1.5510 -28.6856 0.0257 0.0000 24.7585 0.4487 2.8045 -9.0945 33.1476 -0.0000 26.2537 -1.9845 3.2666 2.6761
 -1.3065 33.0623 -0.7001 8.1858 -2.5006 2.7374 -3.2255 -8.3127 -5.2053 -0.4135 0.0000 -0.0000 -10.0959 -5.6570 4.3768 6.1788 0.0000 0.0000 -2.8097 6.8298 5.1241 1.2311 0.0000 0.0000 -7.6321 8.6428 -18.2297 8.4079 0.0000 -0.0000 -9.0267 -2.4243 -2.1229 0.9388 -21.1510 -27.2453 -36.1576 2.4370 34.1434 9.8827 -0.0000 15.2416 -1.7036 11.1133 8.7718 32.8623 0.0000 -24.3270 -8.3353 22.6854 33.5525 -33.6144 1.5462 -28.7509 0.0435 0.0000 24.7708 0.4391 2.7076 -9.2153 33.1476 -0.0000 26.2537 -2.0164 3.3857 2.6896
 -1.3084 33.0626 -0.7002 8.1912 -2.5073 2.7327 -3.2236 -8.3206 -5.1985 -0.4297 -0.0000 -0.0000 -10.0802 -5.6300 4.3655 6.1735 -0.0000 -0.0000 -2.8091 6.8235 5.1327 1.2219 -0.0000 -0.0000 -7.6229 8.6497 -18.2155 8.3732 0.0000 -0.0000 -9.0241 -2.4086 -2.1145 0.9523 -21.1617 -27.2451 -36.1797 2.4601 34.1423 9.8638 -0.0000 15.2236 -1.7352 11.1044 8.9388 32.8623 0.0000 -24.3270 -8.3126 22.7042 33.5447 -33.5847 1.5462 -28.8426 0.0346 0.0000 24.8085 0.4411 2.6586 -9.4245 33.1476 -0.0000 26.2537 -2.0437 3.4279 2.6851
 -1.3092 33.0628 -0.7014 8.2028 -2.5194 2.7331 -3.2337 -8.3152 -5.1951 -0.4403 -0.0000 0.0000 -10.0659 -5.6253 4.3773 6.1574 0.0000 -0.0000 -2.8122 6.8124 5.1340 1.2108 0.0000 0.0000 -7.6280 8.6715 -18.2153 8.4331 -0.0000 0.0000 -9.0266 -2.3857 -2.0998 0.9484 -21.1550 -27.2597 -36.1711 2.4589 34.1412 9.8882 -0.0000 15.2675 -1.7110 11.1436 8.7861 32.8623 0.0000 -24.3270 -8.2989 22.7144 33.5332 -33.5768 1.5695 -28.9309 0.0423 0.0000 24.8633 0.4477 2.7009 -9.4158 33.1476 -0.0000 26.2537 -2.0654 3.4384 2.6651
 -1.3102 33.0626 -0.7017 8.2057 -2.5293 2.7349 -3.2293 -8.3170 -5.1916 -0.4619 0.0000 -0.0000 -10.0623 -5.6288 4.3995 6.1924 -0.0000 -0.0000 -2.8088 6.7964 5.1338 1.2047 0.0000 -0.0000 -7.6187 8.6980 -18.2216 8.4013 0.0000 0.0000 -9.0189 -2.3698 -2.0909 0.9625 -21.1591 -27.2652 -36.1802 2.4675 34.1546 9.9158 -0.0000 15.2862 -1.7194 11.0752 8.8816 32.8623 0.0000 -24.3270 -8.2754 22.7475 33.5157 -33.5835 1.5778 -29.0183 0.0447 0.0000 24.9002 0.4270 2.5624 -9.4632 33.1476 -0.0000 26.2537 -2.0950 3.4409 2.6549
 -1.3117 33.0623 -0.7025 8.2120 -2.5468 2.7351 -3.2341 -8.3422 -5.1877 -0.4791 -0.0000 -0.0000 -10.0481 -5.5896 4.3979 6.1864 0.0000 -0.0000 -2.8114 6.8110 5.1355 1.2027 -0.0000 0.0000 -7.6225 8.7109 -18.2177 8.4252 -0.0000 -0.0000 -9.0177 -2.3490 -2.0774 0.9688 -21.1578 -27.2685 -36.1796 2.4887 34.1709 9.9350 -0.0000 15.2817 -1.7246 11.0384 8.9368 32.8623 0.0000 -24.3270 -8.2523 22.7688 33.5004 -33.5833 1.5968 -29.0954 0.0400 0.0000 24.8204 0.4246 2.5147 -9.5867 33.1476 -0.0000 26.2537 -2.1241 3.4194 2.6575
